<svg width="159" height="67" viewBox="0 0 159 67" fill="none" xmlns="http://www.w3.org/2000/svg">
<path d="M57.2 55H61L63.5 46.1H78.3L80.8 55H84.6L75.1 20.4H66.7L57.2 55ZM69.6 23.7H72.2L77.45 42.65H64.35L69.6 23.7ZM89.3852 55H93.1352V36.65C93.1352 36.65 97.5352 34.2 102.235 33.25V29.45C97.4352 30.4 93.0852 33.4 93.0852 33.4V30H89.3852V55ZM110.42 55V43.55L114.37 43.4L121.82 55H126.07L117.57 41.5L125.72 30H121.47L114.32 40.1L110.42 40.3V19.1H106.67V55H110.42ZM148.1 37.55C148.1 32.1 145.7 29.5 140.05 29.5C135.75 29.5 130.25 30.6 130.25 30.6L130.4 33.45C130.4 33.45 136.35 32.8 139.85 32.8C142.85 32.8 144.35 34.05 144.35 37.55V39.7L136.5 40.45C131.35 40.95 128.85 43.05 128.85 47.85C128.85 52.9 131.35 55.5 135.9 55.5C140.4 55.5 144.9 53.5 144.9 53.5C146.4 55 148.2 55.5 150.85 55.5L151 52.55C149.4 52.35 148.2 51.8 148.1 50.35V37.55ZM144.35 42.55V50.8C144.35 50.8 140.2 52.35 136.5 52.35C133.95 52.35 132.7 50.65 132.7 47.75C132.7 45 133.9 43.55 136.95 43.25L144.35 42.55Z" fill="#262626"/>
<g clip-path="url(#clip0_171_985)">
<path fill-rule="evenodd" clip-rule="evenodd" d="M26.3643 42.702V55H22.2613V45.0693L24.334 43.8734L26.3643 42.702ZM26.3643 41.3477L24.334 42.5191V28.7241L21.4045 27.0329V18.3203L28.7226 22.5461V34.7704L26.3643 36.1336V41.3477ZM23.1537 29.4023V43.1973L21.0833 44.3932V55H18.4371V26.6781L23.1537 29.4023ZM17.2591 37.4366V55H14.294V39.1479L17.2591 37.4366ZM33.4392 55V40.1184L33.9368 40.4062L38.6534 43.1282V53.3244H45.3244V12.6756H4.67557V53.3244H11.3444V49.6609L13.1137 48.6391V55H11.3444H3V11H47V55C42.4797 55 37.9572 55 33.4392 55ZM27.5424 55V36.8029L32.2612 34.0787V54.9978H27.5424V55Z" fill="#D9916A"/>
</g>
<defs>
<clipPath id="clip0_171_985">
<rect width="44" height="44" fill="white" transform="translate(3 11)"/>
</clipPath>
</defs>
</svg>
