<svg width="194" height="82" viewBox="0 0 194 82" fill="none" xmlns="http://www.w3.org/2000/svg">
<g clip-path="url(#clip0_139_32)">
<path d="M56 34.2109L0 74.0002H27.6281V70.6656H10.4812L52.6153 40.7278V48.6717H56V34.2109Z" fill="#D9916A"/>
<path d="M24.4951 16.5073L8.44019 25.6412V68.6341H11.8249V27.5672L21.1104 22.2845V30.3219H24.4951V16.5073Z" fill="#D9916A"/>
<path d="M15.8435 27.9146V63.188H19.229V31.2499H32.6632V51.1861H36.0479V27.9146H15.8435Z" fill="#D9916A"/>
<path d="M28.1255 0V29.6758H31.5102V8.8697L41.9436 20.6074V44.899H45.3276V19.3533L28.1255 0Z" fill="#D9916A"/>
<path d="M33.4265 35.2534H26.5369V38.5888H33.4265V35.2534Z" fill="#D9916A"/>
<path d="M33.4265 41.0264H26.5369V44.3617H33.4265V41.0264Z" fill="#D9916A"/>
<path d="M40.4224 58.1924V61.3938H43.6711V58.1924H40.4224ZM44.9453 58.1924V61.3938H48.194V58.1924H44.9453ZM40.4224 62.2725V65.4739H43.6711V62.2725H40.4224ZM44.9453 62.2725V65.4739H48.194V62.2725H44.9453Z" fill="#D9916A"/>
</g>
<path d="M73.2 63H77L79.5 54.1H94.3L96.8 63H100.6L91.1 28.4H82.7L73.2 63ZM85.6 31.7H88.2L93.45 50.65H80.35L85.6 31.7ZM105.385 63H109.135V44.65C109.135 44.65 113.535 42.2 118.235 41.25V37.45C113.435 38.4 109.085 41.4 109.085 41.4V38H105.385V63ZM131.532 37.5C124.082 37.5 121.132 41 121.132 50.05C121.132 59.85 123.482 63.5 131.432 63.5C133.732 63.5 138.382 62.8 138.382 62.8L138.232 59.7C138.232 59.7 134.232 60.15 132.332 60.15C126.132 60.15 124.982 57.45 124.982 50.05C124.982 43.35 126.532 40.85 132.282 40.85C134.182 40.85 138.182 41.3 138.182 41.3L138.332 38.25C138.332 38.25 133.832 37.5 131.532 37.5ZM147.709 63V42.35C147.709 42.35 151.209 40.85 154.759 40.85C159.359 40.85 160.109 43.3 160.109 49.9V63H163.859V49.8C163.859 40.9 162.259 37.5 155.409 37.5C151.709 37.5 147.709 39.4 147.709 39.4V27.1H143.959V63H147.709ZM180.415 37.5C172.515 37.5 169.715 41.6 169.715 50.2C169.715 59.3 172.015 63.5 180.415 63.5C188.865 63.5 191.115 59.3 191.115 50.2C191.115 41.6 188.365 37.5 180.415 37.5ZM180.415 60.25C174.515 60.25 173.565 57.3 173.565 50.2C173.565 43.25 175.115 40.75 180.415 40.75C185.765 40.75 187.265 43.25 187.265 50.2C187.265 57.3 186.365 60.25 180.415 60.25Z" fill="white"/>
<defs>
<clipPath id="clip0_139_32">
<rect width="56" height="74" fill="white"/>
</clipPath>
</defs>
</svg>
